<svg width="48" height="48" viewBox="0 0 48 48" fill="none" xmlns="http://www.w3.org/2000/svg">
<path fill-rule="evenodd" clip-rule="evenodd" d="M31.8174 14.8575H40.8132L31.8174 5.86169V14.8575Z" fill="#58CCED"/>
<path fill-rule="evenodd" clip-rule="evenodd" d="M10.5112 43.7388V9.64941H6.25V48H37.0251V43.7388H10.5112Z" fill="#58CCED"/>
<path d="M41.4753 13.7211L32.953 5.19872C32.7771 5.02294 32.5387 4.92412 32.2901 4.92412H23.5216V4.72519C23.5216 2.11969 21.4018 0 18.7963 0C16.1908 0 14.0711 2.11969 14.0711 4.72519V4.92412H10.5107C9.99305 4.92412 9.57324 5.34394 9.57324 5.86162V43.7387C9.57324 44.2564 9.99305 44.6762 10.5107 44.6762H40.8124C41.3301 44.6762 41.7499 44.2564 41.7499 43.7387V14.3841C41.7499 14.1353 41.6511 13.8969 41.4753 13.7211ZM15.9461 4.72519C15.9461 3.15356 17.2247 1.875 18.7963 1.875C20.3678 1.875 21.6465 3.15366 21.6465 4.72519V4.92412H19.7338V4.72519C19.7338 4.2075 19.314 3.78769 18.7963 3.78769C18.2786 3.78769 17.8588 4.2075 17.8588 4.72519V4.92412H15.9461V4.72519ZM15.9461 6.79913H17.8588V10.5963C17.8588 11.1236 17.4298 11.5526 16.9024 11.5526C16.3751 11.5526 15.9461 11.1236 15.9461 10.5963V6.79913ZM39.8749 42.8013H11.4482V6.79913H14.0711V10.5963C14.0711 12.1575 15.3412 13.4276 16.9024 13.4276C18.4636 13.4276 19.7338 12.1575 19.7338 10.5963V6.79913H31.9017L39.8749 14.7724V42.8013Z" fill="white"/>
<path d="M16.902 15.8138C15.2103 15.8138 13.834 17.1902 13.834 18.8819C13.834 20.5737 15.2103 21.9501 16.902 21.9501C18.5939 21.9501 19.9702 20.5737 19.9702 18.8819C19.9702 17.1901 18.5939 15.8138 16.902 15.8138ZM16.902 20.075C16.2442 20.075 15.709 19.5397 15.709 18.8818C15.709 18.224 16.2442 17.6887 16.902 17.6887C17.56 17.6887 18.0952 18.224 18.0952 18.8818C18.0952 19.5397 17.56 20.075 16.902 20.075Z" fill="white"/>
<path d="M22.3564 18.882C22.3564 19.3996 22.7763 19.8195 23.2939 19.8195H36.551C37.0687 19.8195 37.4885 19.3996 37.4885 18.882C37.4885 18.3643 37.0687 17.9445 36.551 17.9445H23.2939C22.7762 17.9445 22.3564 18.3643 22.3564 18.882Z" fill="white"/>
<path d="M16.902 34.2791C15.2103 34.2791 13.834 35.6554 13.834 37.3471C13.834 39.0389 15.2103 40.4153 16.902 40.4153C18.5939 40.4153 19.9702 39.0389 19.9702 37.3471C19.9702 35.6553 18.5939 34.2791 16.902 34.2791ZM16.902 38.5402C16.2442 38.5402 15.709 38.005 15.709 37.347C15.709 36.6892 16.2442 36.154 16.902 36.154C17.56 36.154 18.0952 36.6892 18.0952 37.347C18.0952 38.005 17.56 38.5402 16.902 38.5402Z" fill="white"/>
<path d="M36.551 36.4095H23.2939C22.7763 36.4095 22.3564 36.8294 22.3564 37.347C22.3564 37.8647 22.7763 38.2845 23.2939 38.2845H36.551C37.0687 38.2845 37.4885 37.8647 37.4885 37.347C37.4885 36.8294 37.0687 36.4095 36.551 36.4095Z" fill="white"/>
<path d="M16.902 25.0464C15.2103 25.0464 13.834 26.4227 13.834 28.1145C13.834 29.8063 15.2103 31.1826 16.902 31.1826C18.5939 31.1826 19.9702 29.8063 19.9702 28.1145C19.9702 26.4227 18.5939 25.0464 16.902 25.0464ZM16.902 29.3075C16.2442 29.3075 15.709 28.7723 15.709 28.1144C15.709 27.4565 16.2442 26.9213 16.902 26.9213C17.56 26.9213 18.0952 27.4565 18.0952 28.1144C18.0952 28.7723 17.56 29.3075 16.902 29.3075Z" fill="white"/>
<path d="M36.551 27.177H23.2939C22.7763 27.177 22.3564 27.5968 22.3564 28.1145C22.3564 28.6322 22.7763 29.052 23.2939 29.052H36.551C37.0687 29.052 37.4885 28.6322 37.4885 28.1145C37.4885 27.5968 37.0687 27.177 36.551 27.177Z" fill="white"/>
<path d="M23.2939 23.6072H29.9225C30.4402 23.6072 30.86 23.1874 30.86 22.6697C30.86 22.152 30.4402 21.7322 29.9225 21.7322H23.2939C22.7763 21.7322 22.3564 22.152 22.3564 22.6697C22.3564 23.1874 22.7762 23.6072 23.2939 23.6072Z" fill="white"/>
<path d="M23.2939 32.8397H29.9225C30.4402 32.8397 30.86 32.4199 30.86 31.9022C30.86 31.3845 30.4402 30.9647 29.9225 30.9647H23.2939C22.7763 30.9647 22.3564 31.3845 22.3564 31.9022C22.3564 32.4199 22.7762 32.8397 23.2939 32.8397Z" fill="white"/>
</svg>
