<svg width="36" height="48" viewBox="0 0 36 48" fill="none" xmlns="http://www.w3.org/2000/svg">
<path d="M17.7547 42.137C24.3222 42.137 29.6462 36.813 29.6462 30.2456C29.6462 23.6781 24.3222 18.3541 17.7547 18.3541C11.1873 18.3541 5.86328 23.6781 5.86328 30.2456C5.86328 36.813 11.1873 42.137 17.7547 42.137Z" fill="#58CCED"/>
<path d="M31.4543 18.9516C29.3889 16.4488 26.6724 14.5612 23.6449 13.4935L28.5927 11.1489C28.92 10.9939 29.1288 10.664 29.1288 10.3017V0.9375C29.1288 0.419719 28.709 0 28.1913 0H7.31775C6.79997 0 6.38025 0.419719 6.38025 0.9375V10.3018C6.38025 10.6641 6.58894 10.9939 6.91631 11.149L11.8642 13.4936C8.83659 14.5613 6.12009 16.449 4.05469 18.9517C1.44 22.1198 0 26.1308 0 30.2455C0 40.0354 7.96462 48 17.7545 48C27.5443 48 35.5089 40.0354 35.5089 30.2455C35.5089 26.1307 34.069 22.1198 31.4543 18.9516ZM14.3534 12.5983V1.875H21.1555L21.1556 12.5982L17.7545 14.2099L14.3534 12.5983ZM27.2538 9.70866L23.0306 11.7098V1.875H27.2538V9.70866ZM8.25525 1.875H12.4783V11.7098L8.25525 9.70856V1.875ZM17.7545 46.125C8.9985 46.125 1.875 39.0015 1.875 30.2455C1.875 22.7741 7.15097 16.2609 14.4373 14.7129L17.353 16.0946C17.4801 16.1548 17.6173 16.1849 17.7545 16.1849C17.8917 16.1849 18.0289 16.1548 18.1559 16.0946L21.0716 14.7129C28.358 16.261 33.6338 22.7742 33.6338 30.2455C33.6339 39.0015 26.5104 46.125 17.7545 46.125Z" fill="white"/>
<path d="M23.0914 28.1815L20.1268 27.4949L18.5577 24.8875C18.388 24.6057 18.0832 24.4333 17.7545 24.4333C17.4257 24.4333 17.1208 24.6057 16.9512 24.8875L15.382 27.4949L12.4174 28.1815C12.097 28.2557 11.8389 28.4923 11.7373 28.8051C11.6357 29.1178 11.7054 29.461 11.921 29.7093L13.9159 32.0074L13.6528 35.0391C13.6244 35.3668 13.7697 35.6853 14.0357 35.8786C14.3017 36.0718 14.6496 36.1116 14.9525 35.9833L17.7544 34.7963L20.5564 35.9833C20.674 36.0332 20.7983 36.0576 20.922 36.0576C21.1169 36.0576 21.3104 35.9969 21.4731 35.8785C21.7392 35.6852 21.8845 35.3667 21.8561 35.039L21.593 32.0073L23.5878 29.7092C23.8034 29.4609 23.873 29.1178 23.7714 28.8049C23.6699 28.4924 23.4118 28.2557 23.0914 28.1815ZM19.9167 31.0783C19.7503 31.27 19.6687 31.5209 19.6907 31.7739L19.8534 33.6493L18.1202 32.9149C18.0033 32.8654 17.8789 32.8407 17.7545 32.8407C17.63 32.8407 17.5056 32.8654 17.3887 32.9149L15.6554 33.6493L15.8181 31.7739C15.8401 31.5209 15.7585 31.27 15.5921 31.0783L14.358 29.6566L16.1919 29.2318C16.4392 29.1746 16.6528 29.0194 16.7837 28.8019L17.7544 27.189L18.725 28.8019C18.8559 29.0194 19.0695 29.1746 19.3168 29.2318L21.1507 29.6566L19.9167 31.0783Z" fill="white"/>
</svg>
